G04*
G04 Format:               Gerber RS-274X*
G04 Export Settings:      (default)*
G04 Layer:                BottomSilkscreen*
G04 This File Name:       wii_to_snesmultiout.gbo*
G04 Source File Name:     wii_to_snesmultiout.rrb*
G04 Unique ID:            a9f98a6f-7b16-41eb-b503-fa8c6335f000*
G04 Generated Date:       Tuesday, 10 July 2018 14:25:27*
G04*
G04 Created Using:        Robot Room Copper Connection v3.0.5875*
G04 Software Contact:     http://www.robotroom.com/CopperConnection/Support.aspx*
G04 License Number:       1880*
G04*
G04 Zero Suppression:     Leading*
G04 Number Precision:     2.4*
G04*
%FSLAX24Y24*%
%MOIN*%
%LNBottomSilkscreen*%
%ADD10C,.007*%
%ADD11R,.006X.006*%
%ADD12R,.007X.007*%
%ADD13R,.0591X.378*%
%ADD14R,.075X.1213*%
D10*
G01X5201Y-2914D02*
G74*
G03X5275Y-2988I74J0D01*
G01X5424D01*
G03X5498Y-2914I0J74D01*
G01Y-2617D01*
G03X5424Y-2542I74J0D01*
G01X5275D01*
G03X5201Y-2617I0J74D01*
G01Y-2765D01*
G03X5275Y-2840I74J0D01*
G01X5350D01*
G03X5387Y-2802I0J37D01*
G01Y-2728D01*
G03X5350Y-2691I37J0D01*
G01X5294D01*
X5289Y-2692D01*
X5284Y-2696D01*
X5281Y-2702D01*
X5278Y-2709D01*
X5276Y-2718D01*
X5275Y-2728D01*
Y-2821D01*
X4755Y-2933D02*
Y-2938D01*
X4758Y-2944D01*
X4761Y-2949D01*
X4766Y-2954D01*
X4772Y-2959D01*
X4780Y-2964D01*
X4789Y-2968D01*
X4799Y-2972D01*
X4810Y-2976D01*
X4822Y-2979D01*
X4834Y-2982D01*
X4848Y-2984D01*
X4862Y-2986D01*
X4876Y-2987D01*
X4903Y-2988D01*
G03X5052Y-2840I0J149D01*
X4903Y-2691I149J0D01*
G01X4889D01*
X4874Y-2692D01*
X4860Y-2693D01*
X4846Y-2695D01*
X4833Y-2698D01*
X4820Y-2700D01*
X4808Y-2704D01*
X4798Y-2707D01*
X4788Y-2712D01*
X4779Y-2716D01*
X4772Y-2721D01*
X4765Y-2726D01*
X4761Y-2731D01*
X4757Y-2736D01*
X4755Y-2747D01*
X4457Y-2691D02*
Y-2988D01*
Y-2542D02*
Y-2579D01*
X4011Y-2542D02*
Y-2988D01*
X4123Y-2691D02*
X3899D01*
X3714Y-2840D02*
G03X3565Y-2691I149J0D01*
G01X3550D01*
X3536Y-2692D01*
X3521Y-2694D01*
X3508Y-2697D01*
X3494Y-2700D01*
X3482Y-2704D01*
X3470Y-2708D01*
X3459Y-2713D01*
X3449Y-2718D01*
X3441Y-2724D01*
X3433Y-2731D01*
X3427Y-2737D01*
X3422Y-2744D01*
X3419Y-2752D01*
X3416Y-2765D01*
X3714Y-2691D02*
Y-2988D01*
X2970Y-2840D02*
G03X3119Y-2988I149J0D01*
X3267Y-2840I0J149D01*
G01Y-2691D01*
X2970D02*
Y-2988D01*
X2606Y-2847D02*
X2592Y-2848D01*
X2578Y-2851D01*
X2565Y-2856D01*
X2554Y-2862D01*
X2544Y-2870D01*
X2536Y-2879D01*
X2529Y-2890D01*
X2525Y-2901D01*
X2524Y-2914D01*
G03X2598Y-2988I74J0D01*
G01X2747D01*
X2761Y-2987D01*
X2774Y-2984D01*
X2786Y-2980D01*
X2797Y-2974D01*
X2807Y-2966D01*
X2814Y-2957D01*
X2819Y-2947D01*
X2821Y-2933D01*
X2739Y-2832D02*
X2753Y-2831D01*
X2767Y-2828D01*
X2780Y-2824D01*
X2791Y-2817D01*
X2801Y-2809D01*
X2809Y-2800D01*
X2816Y-2790D01*
X2820Y-2779D01*
X2821Y-2765D01*
G03X2747Y-2691I74J0D01*
G01X2598D01*
X2584Y-2692D01*
X2571Y-2695D01*
X2559Y-2699D01*
X2548Y-2706D01*
X2539Y-2713D01*
X2531Y-2722D01*
X2526Y-2732D01*
X2524Y-2747D01*
X2739Y-2832D02*
X2606Y-2847D01*
X2375Y-2654D02*
X2374Y-2643D01*
X2372Y-2632D01*
X2369Y-2621D01*
X2364Y-2611D01*
X2357Y-2601D01*
X2350Y-2591D01*
X2341Y-2582D01*
X2331Y-2574D01*
X2320Y-2567D01*
X2308Y-2560D01*
X2295Y-2555D01*
X2282Y-2550D01*
X2268Y-2547D01*
X2254Y-2544D01*
X2226Y-2542D01*
X2212Y-2543D01*
X2197Y-2544D01*
X2183Y-2547D01*
X2169Y-2551D01*
X2156Y-2556D01*
X2143Y-2561D01*
X2131Y-2568D01*
X2121Y-2575D01*
X2111Y-2584D01*
X2102Y-2592D01*
X2095Y-2602D01*
X2088Y-2612D01*
X2084Y-2622D01*
X2080Y-2633D01*
X2078Y-2654D01*
Y-2665D01*
X2081Y-2676D01*
X2084Y-2686D01*
X2089Y-2697D01*
X2095Y-2707D01*
X2103Y-2716D01*
X2112Y-2725D01*
X2122Y-2733D01*
X2133Y-2740D01*
X2145Y-2747D01*
X2157Y-2753D01*
X2171Y-2757D01*
X2185Y-2761D01*
X2199Y-2763D01*
X2226Y-2765D01*
X2212Y-2766D01*
X2197Y-2767D01*
X2183Y-2770D01*
X2169Y-2774D01*
X2156Y-2779D01*
X2143Y-2784D01*
X2131Y-2791D01*
X2121Y-2798D01*
X2111Y-2807D01*
X2102Y-2816D01*
X2095Y-2825D01*
X2088Y-2835D01*
X2084Y-2845D01*
X2080Y-2856D01*
X2078Y-2877D01*
Y-2888D01*
X2081Y-2899D01*
X2084Y-2909D01*
X2089Y-2920D01*
X2095Y-2930D01*
X2103Y-2939D01*
X2112Y-2948D01*
X2122Y-2956D01*
X2133Y-2963D01*
X2145Y-2970D01*
X2157Y-2976D01*
X2171Y-2980D01*
X2185Y-2984D01*
X2199Y-2986D01*
X2226Y-2988D01*
X2241D01*
X2256Y-2986D01*
X2270Y-2983D01*
X2284Y-2980D01*
X2297Y-2975D01*
X2310Y-2969D01*
X2321Y-2963D01*
X2332Y-2955D01*
X2342Y-2947D01*
X2351Y-2938D01*
X2358Y-2928D01*
X2364Y-2918D01*
X2369Y-2908D01*
X2373Y-2897D01*
X2375Y-2877D01*
X1929Y-2765D02*
Y-2750D01*
X1928Y-2735D01*
X1926Y-2720D01*
X1924Y-2706D01*
X1921Y-2691D01*
X1917Y-2677D01*
X1913Y-2664D01*
X1908Y-2651D01*
X1902Y-2638D01*
X1896Y-2626D01*
X1890Y-2615D01*
X1883Y-2604D01*
X1875Y-2594D01*
X1868Y-2585D01*
X1859Y-2576D01*
X1851Y-2569D01*
X1842Y-2562D01*
X1832Y-2556D01*
X1823Y-2551D01*
X1813Y-2548D01*
X1803Y-2545D01*
X1793Y-2543D01*
X1780Y-2542D01*
X1770Y-2543D01*
X1760Y-2544D01*
X1750Y-2547D01*
X1741Y-2550D01*
X1731Y-2555D01*
X1722Y-2560D01*
X1713Y-2567D01*
X1704Y-2574D01*
X1695Y-2582D01*
X1687Y-2591D01*
X1680Y-2601D01*
X1673Y-2611D01*
X1666Y-2622D01*
X1660Y-2634D01*
X1654Y-2647D01*
X1649Y-2660D01*
X1645Y-2673D01*
X1641Y-2687D01*
X1638Y-2701D01*
X1635Y-2716D01*
X1633Y-2731D01*
X1632Y-2746D01*
X1631Y-2765D01*
X1632Y-2780D01*
X1633Y-2795D01*
X1635Y-2810D01*
X1637Y-2825D01*
X1640Y-2839D01*
X1643Y-2853D01*
X1648Y-2867D01*
X1653Y-2880D01*
X1658Y-2892D01*
X1664Y-2904D01*
X1671Y-2916D01*
X1678Y-2927D01*
X1685Y-2937D01*
X1693Y-2946D01*
X1701Y-2954D01*
X1710Y-2962D01*
X1719Y-2968D01*
X1728Y-2974D01*
X1738Y-2979D01*
X1747Y-2983D01*
X1757Y-2986D01*
X1767Y-2987D01*
X1780Y-2988D01*
X1790D01*
X1800Y-2986D01*
X1810Y-2984D01*
X1820Y-2980D01*
X1829Y-2976D01*
X1839Y-2970D01*
X1848Y-2964D01*
X1857Y-2957D01*
X1865Y-2949D01*
X1873Y-2940D01*
X1881Y-2930D01*
X1888Y-2919D01*
X1894Y-2908D01*
X1901Y-2896D01*
X1906Y-2884D01*
X1911Y-2871D01*
X1916Y-2857D01*
X1920Y-2843D01*
X1923Y-2829D01*
X1925Y-2815D01*
X1927Y-2800D01*
X1928Y-2785D01*
X1929Y-2765D01*
X1862Y-2914D02*
X1698Y-2617D01*
X1483Y-2765D02*
X1482Y-2750D01*
X1481Y-2735D01*
X1480Y-2720D01*
X1477Y-2706D01*
X1474Y-2691D01*
X1471Y-2677D01*
X1467Y-2664D01*
X1462Y-2651D01*
X1456Y-2638D01*
X1450Y-2626D01*
X1444Y-2615D01*
X1437Y-2604D01*
X1429Y-2594D01*
X1421Y-2585D01*
X1413Y-2576D01*
X1404Y-2569D01*
X1395Y-2562D01*
X1386Y-2556D01*
X1377Y-2551D01*
X1367Y-2548D01*
X1357Y-2545D01*
X1347Y-2543D01*
X1334Y-2542D01*
X1324Y-2543D01*
X1314Y-2544D01*
X1304Y-2547D01*
X1294Y-2550D01*
X1285Y-2555D01*
X1276Y-2560D01*
X1266Y-2567D01*
X1258Y-2574D01*
X1249Y-2582D01*
X1241Y-2591D01*
X1234Y-2601D01*
X1226Y-2611D01*
X1220Y-2622D01*
X1214Y-2634D01*
X1208Y-2647D01*
X1203Y-2660D01*
X1199Y-2673D01*
X1195Y-2687D01*
X1192Y-2701D01*
X1189Y-2716D01*
X1187Y-2731D01*
X1186Y-2746D01*
X1185Y-2765D01*
X1186Y-2780D01*
X1187Y-2795D01*
X1188Y-2810D01*
X1191Y-2825D01*
X1194Y-2839D01*
X1197Y-2853D01*
X1202Y-2867D01*
X1206Y-2880D01*
X1212Y-2892D01*
X1218Y-2904D01*
X1224Y-2916D01*
X1231Y-2927D01*
X1239Y-2937D01*
X1247Y-2946D01*
X1255Y-2954D01*
X1264Y-2962D01*
X1273Y-2968D01*
X1282Y-2974D01*
X1291Y-2979D01*
X1301Y-2983D01*
X1311Y-2986D01*
X1321Y-2987D01*
X1334Y-2988D01*
X1344D01*
X1354Y-2986D01*
X1364Y-2984D01*
X1374Y-2980D01*
X1383Y-2976D01*
X1393Y-2970D01*
X1402Y-2964D01*
X1410Y-2957D01*
X1419Y-2949D01*
X1427Y-2940D01*
X1434Y-2930D01*
X1442Y-2919D01*
X1448Y-2908D01*
X1454Y-2896D01*
X1460Y-2884D01*
X1465Y-2871D01*
X1470Y-2857D01*
X1473Y-2843D01*
X1477Y-2829D01*
X1479Y-2815D01*
X1481Y-2800D01*
X1482Y-2785D01*
X1483Y-2765D01*
X1416Y-2914D02*
X1252Y-2617D01*
X1037Y-2765D02*
X1036Y-2750D01*
X1035Y-2735D01*
X1034Y-2720D01*
X1031Y-2706D01*
X1028Y-2691D01*
X1025Y-2677D01*
X1020Y-2664D01*
X1016Y-2651D01*
X1010Y-2638D01*
X1004Y-2626D01*
X998Y-2615D01*
X991Y-2604D01*
X983Y-2594D01*
X975Y-2585D01*
X967Y-2576D01*
X958Y-2569D01*
X949Y-2562D01*
X940Y-2556D01*
X930Y-2551D01*
X921Y-2548D01*
X911Y-2545D01*
X901Y-2543D01*
X888Y-2542D01*
X878Y-2543D01*
X868Y-2544D01*
X858Y-2547D01*
X848Y-2550D01*
X839Y-2555D01*
X829Y-2560D01*
X820Y-2567D01*
X812Y-2574D01*
X803Y-2582D01*
X795Y-2591D01*
X787Y-2601D01*
X780Y-2611D01*
X774Y-2622D01*
X767Y-2634D01*
X762Y-2647D01*
X757Y-2660D01*
X752Y-2673D01*
X749Y-2687D01*
X745Y-2701D01*
X743Y-2716D01*
X741Y-2731D01*
X740Y-2746D01*
X739Y-2765D01*
X740Y-2780D01*
X741Y-2795D01*
X742Y-2810D01*
X745Y-2825D01*
X748Y-2839D01*
X751Y-2853D01*
X755Y-2867D01*
X760Y-2880D01*
X766Y-2892D01*
X772Y-2904D01*
X778Y-2916D01*
X785Y-2927D01*
X793Y-2937D01*
X801Y-2946D01*
X809Y-2954D01*
X818Y-2962D01*
X827Y-2968D01*
X836Y-2974D01*
X845Y-2979D01*
X855Y-2983D01*
X865Y-2986D01*
X875Y-2987D01*
X888Y-2988D01*
X898D01*
X908Y-2986D01*
X918Y-2984D01*
X928Y-2980D01*
X937Y-2976D01*
X946Y-2970D01*
X955Y-2964D01*
X964Y-2957D01*
X973Y-2949D01*
X981Y-2940D01*
X988Y-2930D01*
X995Y-2919D01*
X1002Y-2908D01*
X1008Y-2896D01*
X1014Y-2884D01*
X1019Y-2871D01*
X1023Y-2857D01*
X1027Y-2843D01*
X1030Y-2829D01*
X1033Y-2815D01*
X1035Y-2800D01*
X1036Y-2785D01*
X1037Y-2765D01*
X970Y-2914D02*
X806Y-2617D01*
X590Y-2840D02*
G03X442Y-2691I149J0D01*
X293Y-2840I0J149D01*
X442Y-2988I149J0D01*
X590Y-2840I0J149D01*
G01Y-2691D02*
Y-3137D01*
X-71Y-2847D02*
X-85Y-2848D01*
X-99Y-2851D01*
X-112Y-2856D01*
X-123Y-2862D01*
X-133Y-2870D01*
X-141Y-2879D01*
X-148Y-2890D01*
X-151Y-2901D01*
X-153Y-2914D01*
G03X-79Y-2988I74J0D01*
G01X70D01*
X84Y-2987D01*
X97Y-2984D01*
X109Y-2980D01*
X120Y-2974D01*
X130Y-2966D01*
X137Y-2957D01*
X142Y-2947D01*
X144Y-2933D01*
X62Y-2832D02*
X76Y-2831D01*
X90Y-2828D01*
X103Y-2824D01*
X114Y-2817D01*
X124Y-2809D01*
X132Y-2800D01*
X139Y-2790D01*
X143Y-2779D01*
X144Y-2765D01*
G03X70Y-2691I74J0D01*
G01X-79D01*
X-93Y-2692D01*
X-106Y-2695D01*
X-118Y-2699D01*
X-129Y-2706D01*
X-138Y-2713D01*
X-146Y-2722D01*
X-151Y-2732D01*
X-153Y-2747D01*
X62Y-2832D02*
X-71Y-2847D01*
X-451Y-2691D02*
Y-2988D01*
Y-2542D02*
Y-2579D01*
%LPC*%
D13*
X-256Y-5170D03*
X531D03*
X1319D03*
X2106D03*
X2894D03*
X3681D03*
X4469D03*
X5256D03*
D14*
X4000Y0D03*
X5000D03*
X2000D03*
X3000D03*
X0D03*
X1000D03*
%LPD*%
D11*
X3220Y-1742D02*
X3186Y-1955D01*
X3088Y-2147D01*
X2936Y-2299D01*
X2744Y-2397D01*
X2531Y-2431D01*
X2318Y-2397D01*
X2126Y-2299D01*
X1973Y-2147D01*
X1876Y-1955D01*
X1842Y-1742D01*
X1876Y-1529D01*
X1973Y-1337D01*
X2126Y-1184D01*
X2318Y-1086D01*
X2531Y-1053D01*
X2744Y-1086D01*
X2936Y-1184D01*
X3088Y-1337D01*
X3186Y-1529D01*
X3220Y-1742D01*
D12*
X-779Y647D02*
X5790D01*
Y-7168D01*
X-779D01*
Y647D01*
M02*
