G04*
G04 Format:               Gerber RS-274X*
G04 Export Settings:      (default)*
G04 Layer:                TopSilkscreen*
G04 This File Name:       wii_to_snesmultiout.gto*
G04 Source File Name:     wii_to_snesmultiout.rrb*
G04 Unique ID:            a9f98a6f-7b16-41eb-b503-fa8c6335f000*
G04 Generated Date:       Tuesday, 10 July 2018 14:25:27*
G04*
G04 Created Using:        Robot Room Copper Connection v3.0.5875*
G04 Software Contact:     http://www.robotroom.com/CopperConnection/Support.aspx*
G04 License Number:       1880*
G04*
G04 Zero Suppression:     Leading*
G04 Number Precision:     2.4*
G04*
%FSLAX24Y24*%
%MOIN*%
%LNTopSilkscreen*%
%ADD10C,.006*%
%ADD11C,.007*%
%ADD12R,.006X.006*%
%ADD13R,.007X.007*%
%ADD14R,.0354X.063*%
%ADD15R,.0591X.378*%
%ADD16R,.075X.1213*%
D10*
G01X314Y-1365D02*
X442D01*
Y-1429D01*
G74*
G02X314Y-1556I127J0D01*
X187Y-1429I0J127D01*
G01Y-1301D01*
G02X314Y-1174I127J0D01*
G01X329D01*
X343Y-1175D01*
X357Y-1177D01*
X370Y-1180D01*
X383Y-1184D01*
X394Y-1188D01*
X404Y-1193D01*
X413Y-1198D01*
X421Y-1204D01*
X427Y-1210D01*
X432Y-1217D01*
X434Y-1223D01*
X435Y-1231D01*
X1151Y-1365D02*
X1278D01*
Y-1429D01*
G02X1151Y-1556I127J0D01*
X1024Y-1429I0J127D01*
G01Y-1301D01*
G02X1151Y-1174I127J0D01*
G01X1165D01*
X1180Y-1175D01*
X1194Y-1177D01*
X1207Y-1180D01*
X1219Y-1184D01*
X1231Y-1188D01*
X1241Y-1193D01*
X1250Y-1198D01*
X1258Y-1204D01*
X1264Y-1210D01*
X1268Y-1217D01*
X1271Y-1223D01*
X1272Y-1231D01*
X-207Y-2306D02*
X-79Y-2688D01*
X48Y-2306D01*
X630D02*
Y-2688D01*
X885D01*
X1672Y-2662D02*
X1671Y-2666D01*
X1668Y-2670D01*
X1663Y-2673D01*
X1656Y-2677D01*
X1647Y-2680D01*
X1637Y-2682D01*
X1625Y-2684D01*
X1612Y-2686D01*
X1599Y-2687D01*
X1577Y-2688D01*
X1564Y-2687D01*
X1552Y-2686D01*
X1540Y-2683D01*
X1528Y-2679D01*
X1516Y-2674D01*
X1505Y-2667D01*
X1494Y-2660D01*
X1483Y-2652D01*
X1474Y-2643D01*
X1464Y-2633D01*
X1456Y-2622D01*
X1448Y-2610D01*
X1441Y-2598D01*
X1435Y-2585D01*
X1430Y-2571D01*
X1425Y-2557D01*
X1422Y-2543D01*
X1419Y-2528D01*
X1418Y-2513D01*
X1417Y-2497D01*
X1418Y-2482D01*
X1419Y-2467D01*
X1422Y-2452D01*
X1425Y-2438D01*
X1429Y-2424D01*
X1434Y-2410D01*
X1440Y-2397D01*
X1447Y-2385D01*
X1455Y-2373D01*
X1463Y-2362D01*
X1472Y-2352D01*
X1482Y-2343D01*
X1492Y-2334D01*
X1503Y-2327D01*
X1515Y-2321D01*
X1526Y-2315D01*
X1538Y-2311D01*
X1550Y-2308D01*
X1563Y-2306D01*
X1577D01*
X1591D01*
X1605Y-2307D01*
X1618Y-2308D01*
X1630Y-2310D01*
X1641Y-2312D01*
X1651Y-2315D01*
X1659Y-2318D01*
X1665Y-2322D01*
X1670Y-2325D01*
X1672Y-2331D01*
D11*
X4026Y-1804D02*
X4323D01*
X4174D02*
Y-2250D01*
X4769Y-2101D02*
G02X4620Y-2250I149J0D01*
X4472Y-2101I0J149D01*
G01Y-1953D01*
G02X4620Y-1804I149J0D01*
X4769Y-1953I0J149D01*
G01Y-2101D01*
X4918Y-2250D02*
Y-1804D01*
X5141D01*
X5151Y-1805D01*
X5160Y-1808D01*
X5169Y-1812D01*
X5178Y-1819D01*
X5186Y-1826D01*
X5193Y-1836D01*
X5199Y-1847D01*
X5205Y-1858D01*
X5209Y-1871D01*
X5212Y-1885D01*
X5215Y-1899D01*
Y-1916D01*
Y-1930D01*
X5213Y-1944D01*
X5210Y-1958D01*
X5206Y-1971D01*
X5200Y-1983D01*
X5194Y-1994D01*
X5187Y-2003D01*
X5179Y-2011D01*
X5170Y-2018D01*
X5161Y-2023D01*
X5152Y-2026D01*
X5141Y-2027D01*
X4918D01*
%LPC*%
D14*
X315Y-1932D03*
X-103D03*
X733D03*
X1152D03*
X1575D03*
D15*
X-256Y-5170D03*
X531D03*
X1319D03*
X2106D03*
X2894D03*
X3681D03*
X4469D03*
X5256D03*
D16*
X4000Y0D03*
X5000D03*
X2000D03*
X3000D03*
X0D03*
X1000D03*
%LPD*%
D12*
X3220Y-1742D02*
X3186Y-1955D01*
X3088Y-2147D01*
X2936Y-2299D01*
X2744Y-2397D01*
X2531Y-2431D01*
X2318Y-2397D01*
X2126Y-2299D01*
X1973Y-2147D01*
X1876Y-1955D01*
X1842Y-1742D01*
X1876Y-1529D01*
X1973Y-1337D01*
X2126Y-1184D01*
X2318Y-1086D01*
X2531Y-1053D01*
X2744Y-1086D01*
X2936Y-1184D01*
X3088Y-1337D01*
X3186Y-1529D01*
X3220Y-1742D01*
D13*
X-779Y647D02*
X5790D01*
Y-7168D01*
X-779D01*
Y647D01*
M02*
