G04*
G04 Format:               Gerber RS-274X*
G04 Export Settings:      (default)*
G04 Layer:                TopCopper*
G04 This File Name:       wii_to_snesmultiout.gtl*
G04 Source File Name:     wii_to_snesmultiout.rrb*
G04 Unique ID:            a9f98a6f-7b16-41eb-b503-fa8c6335f000*
G04 Generated Date:       Tuesday, 10 July 2018 14:25:27*
G04*
G04 Created Using:        Robot Room Copper Connection v3.0.5875*
G04 Software Contact:     http://www.robotroom.com/CopperConnection/Support.aspx*
G04 License Number:       1880*
G04*
G04 Zero Suppression:     Leading*
G04 Number Precision:     2.4*
G04*
%FSLAX24Y24*%
%MOIN*%
%LNTopCopper*%
%ADD10C,.0118*%
%ADD11C,.012*%
%ADD12C,.0295*%
%ADD13C,.03*%
%ADD14C,.0543*%
%ADD15C,.0545*%
%ADD16C,.072*%
%ADD17R,.006X.006*%
%ADD18R,.007X.007*%
%ADD19R,.0354X.063*%
%ADD20R,.0591X.378*%
%ADD21R,.075X.1213*%
%ADD22R,.078X.1055*%
%ADD23R,.0907X.137*%
%ADD24R,.1016X.4205*%
%ADD25R,.1175X.1638*%
G36*
G01X-841Y703D02*
X5852D01*
Y-7113D01*
X-841D01*
Y703D01*
G37*
%LPC*%
G36*
X-846Y607D02*
X5846D01*
Y-820D01*
X-846D01*
Y607D01*
G37*
G36*
X-846Y-3231D02*
X5846D01*
Y-7168D01*
X-846D01*
Y-3231D01*
G37*
D14*
X-256Y-5170D02*
X-486Y-3407D01*
Y-1075D02*
X0Y0D01*
X-486Y-3407D02*
Y-1075D01*
D15*
X3681Y-5170D02*
Y-3179D01*
X5453Y-1734D02*
Y-869D01*
X2106Y-5170D02*
Y-3044D01*
X2894Y-5170D02*
Y-3192D01*
X2000Y0D02*
X1694Y-966D01*
X-108Y-1174D02*
X-103Y-1932D01*
X1000Y0D02*
X480Y-928D01*
X728Y-1321D02*
X733Y-1932D01*
X1575D02*
X1565Y-1371D01*
X1694Y-966D02*
X1024D01*
X728Y-1321D01*
X480Y-928D02*
X88D01*
X-108Y-1174D01*
X2894Y-3192D02*
X3680Y-2535D01*
Y-1804D01*
X5453Y-869D02*
X5000Y0D01*
X3680Y-1804D02*
X4000Y-1213D01*
X3681Y-3179D02*
X5453Y-1734D01*
D16*
X2106Y-3044D03*
X4000Y-1213D03*
X1565Y-1371D03*
D22*
X315Y-1932D03*
X-103D03*
X733D03*
X1152D03*
X1575D03*
D24*
X-256Y-5170D03*
X531D03*
X1319D03*
X2106D03*
X2894D03*
X3681D03*
X4469D03*
X5256D03*
D25*
X4000Y0D03*
X5000D03*
D23*
X2000Y0D03*
D25*
X3000Y0D03*
X0D03*
D23*
X1000Y0D03*
%LPD*%
D10*
X-256Y-5170D02*
X-486Y-3407D01*
Y-1075D02*
X0Y0D01*
X-486Y-3407D02*
Y-1075D01*
D11*
X3681Y-5170D02*
Y-3179D01*
X5453Y-1734D02*
Y-869D01*
X2106Y-5170D02*
Y-3044D01*
X2894Y-5170D02*
Y-3192D01*
X2000Y0D02*
X1694Y-966D01*
X-108Y-1174D02*
X-103Y-1932D01*
X1000Y0D02*
X480Y-928D01*
X728Y-1321D02*
X733Y-1932D01*
X1575D02*
X1565Y-1371D01*
X1694Y-966D02*
X1024D01*
X728Y-1321D01*
X480Y-928D02*
X88D01*
X-108Y-1174D01*
X315Y-1932D02*
X319Y-2650D01*
X1152Y-1932D02*
X1148Y-2650D01*
X2894Y-3192D02*
X3680Y-2535D01*
Y-1804D01*
X5453Y-869D02*
X5000Y0D01*
X3680Y-1804D02*
X4000Y-1213D01*
X3681Y-3179D02*
X5453Y-1734D01*
D12*
X2106Y-3044D03*
X4000Y-1213D03*
X1565Y-1371D03*
X1319Y-2837D03*
D03*
X5108Y-2788D03*
X3337Y-1164D03*
X5108Y-2788D03*
X39Y-2837D03*
X4983Y-1263D03*
X4117Y-1952D03*
D13*
X3000Y0D02*
Y-994D01*
D19*
X315Y-1932D03*
X-103D03*
X733D03*
X1152D03*
X1575D03*
D20*
X-256Y-5170D03*
X531D03*
X1319D03*
X2106D03*
X2894D03*
X3681D03*
X4469D03*
X5256D03*
D21*
X4000Y0D03*
X5000D03*
X2000D03*
X3000D03*
X0D03*
X1000D03*
M02*
